<?xml version="1.0" encoding="UTF-8"?>
<svg xmlns="http://www.w3.org/2000/svg" width="1024" height="1024" viewBox="0 0 1024 1024">
  <rect width="1024" height="1024" fill="#181e25"/>
  <g id="Base_Layer" data-name="Base Layer">
    <rect width="1024" height="1024" fill="#111827"/>
    <rect width="1024" height="1024" fill="#111827"/>
  </g>
  <g id="J_Logo" data-name="J Logo">
    <path d="M475.8,615.44c-1.47-5.4-2.23-10.06-2.54-15.38l-14.57,31.21-10.81,14.13c-7.5,9.8-28.36,13.2-37.75.27-4.16-5.73-6.24-12.39-6.72-19.53-.63-9.28-.65-18.29.76-27.34l4.14-26.63-20.63,7.11-8.33,33.53c-5.09,20.49-11.87,39.81-19.39,59.55-17.48,45.86-44.61,94.74-79.64,129.12-10.18,9.99-21.26,18.22-33.47,25.44-23.19,13.71-59.1,23.49-80.95,7.98-7.39-5.25-12.01-13.14-14.13-21.9-8.32-34.47,15.35-76.76,36.19-104.81,8.74-11.76,17.57-22.7,28.06-32.92l21.19-20.65,14.95-13.15,24.51-19.37,15.9-11.11,27.49-17.43,26.16-13.82c13.43-59.92,21.53-119.75,24.66-181.89-58.24,26.25-109.19,62.29-155.49,104.87l-26.04,25.98-8.89,10.13c-6.38,7.27-12.28,14.48-16.74,23.22-1.06,2.08-2,5.69-5.07,5.82-7.2.31-12.15-6.69-10.91-13.68,2.31-13.01,13.94-29.64,23.07-40l13.59-15.44,23.79-23.1c7.76-7.53,15.63-14.22,24.22-20.71l19.94-15.05,18.89-13.09c9.89-6.86,19.83-12.66,30.21-18.75,32.36-18.99,73.26-37.55,109.24-47.61,12.28-3.44,24.01-7.12,36.83-8.04,8.02-.58,14.78,4.44,13.89,9.29-.26,1.4-1.21,2.96-3.05,3.51l-8.55,2.59-38,12.51-.52,25-.46,7.07c-3.42,52-8.75,98.49-19.35,149.68-1.14.65.12,1.93.95.93l18.06-2.1c2.34-10.15,4.57-20.06,5.05-30.63.13-2.79.38-4.95,2.92-6.24l11.89-6.05c5.04-2.57,10.46-3.16,16.28-2.75,4.16.29,7.74,3.72,6.85,8.22l-5.38,27.36-5.87,27.03-5.21,28.42-.35,12.96c-.04,1.51,1.09,4.98,2.97,4.95,6.06-.09,17.12-22,21.12-31.8l7.56-18.51c8.29-20.29,13.82-40.99,18.3-62.45.55-2.62,2.55-6,4.91-7.06,12.85-5.77,30.62.74,28.59,9.7l-4.75,21.06c-4.74,21-12.47,50.54-9.07,70.27.29,1.71,2.02,4.6,4.07,3.74,4.2-1.78,7.6-5.35,9.9-9.16l14.3-23.67,7.56-15.22.82-10.9,1.16-15.01,1.53-13.75c2.19-19.69,4.97-38.59,8.78-58.1,4.34-22.23,8.6-43.49,14.57-65.36,6.2-22.71,12.88-44.42,21.72-66.14l11.34-24.67,6.69-11.31c4.32-7.3,9.68-13.29,15.87-19.14,10.77-10.17,29.22-16.43,40.14-8.53,13,9.4,10.4,31.49,7.42,48.1-3.44,19.23-8.71,37.44-15.05,55.89l-6.94,20.2c-8.86,25.79-20.23,50.06-31.94,74.65l-3.59,7.55-12.68,25.23-12.61,23.4-8.64,15.24c-3.23,5.69-1.24,13.28-1.7,19.68l-.66,9.14.59,32.54c.12,6.78,2.7,16.97,7.06,17.55,6.55.88,18.45-16.4,23.9-25.67,3.09-5.26,8.63-10.6,9.93-16.5,1.4-10.54,1.69-20.59,4.59-30.9,5.92-21.07,13.21-38.14,25.87-56.02,5.7-8.06,11.85-15.14,19.63-21.39,12.99-10.44,33.07-18.54,46.28-9.4,10.94,7.57,8.33,29.5,2.82,43.54-6.15,15.68-16.87,31.57-29.84,42.14-9.05,7.37-18.34,13.72-29.96,17.36-2.66,17.29-.93,44.04,13.95,38.5,14.92-5.56,29.22-18.32,38.82-31.08l14.6-19.41c9.95-13.24,18.39-26.86,26.34-41.56-6.33-12.43-5.46-26.55,2.25-38.71,10.13-15.98,26.01-27.33,43.59-34.28,14.01-5.54,32.47-6.48,42.47,4.29,6.02,6.49,6.72,16.33.99,23.09-2.16,2.54-6.56,2.05-8.16-1.07-1.9-3.73-5.97-9.37-10.5-9.09-6.28.39-11.88,4.17-16.73,7.78-7.93,5.9-13.29,14.5-14.37,24.46-.9,8.3,5.05,18.93,9.96,26.67l16.65,26.27,6.99,11.97,40.09-22.98,16.45-10.61,26.44-19.55c2.08-1.54,5.33-3.44,7.83-1.79,4.66,3.07,3.95,9.28.33,13.01-8.03,8.26-16.32,15.61-25.88,22.06l-30.43,20.5-28.72,16.83c3,18.33,2.69,32.12-6.26,49.07l-7.09,9.9c-4.38,6.12-9.79,10.91-16.08,14.92l-14.05,8.96c-11.98,5.91-24.52,9.85-37.8,11.99l-13.66.53c-5.05.2-10.01-1.34-14.13-3.81-15.64-9.37-7.65-31.44,2.73-42.62l10.6-11.42,12.49-10.45,21.51-14.45,21.6-12.3-3.34-8.43c-3.69-9.31-9.96-16.85-16.31-24.6l-9.54-11.63c-.65-.79-1.52-.46-1.81.54l-22.71,37.25c-7.92,12.99-17.06,24.35-27.49,35.49-8.91,9.52-19.25,17.29-31.16,22.64-12.6,5.66-26.49,5.35-38.59-1.03-10.92-5.75-16.16-16.88-16.4-16.89-.49-.01-.82.04-1.26.68l-14.64,21.39c-6.94,10.14-21.79,22.06-34.43,22.35-3.23.07-6.66-.86-9.53-2.15-15.86-7.14-20.01-29.47-22.07-46.93.73-1.45-1.1-1.95-1.19-.91-1.43,5.74-5.09,9.86-7.84,14.49-6.4,10.75-18.29,24.39-30.16,25.71-12.8,1.42-24.35-5.93-27.81-18.64l.03.02ZM598.21,468.13l9.61-21.55c16.06-36.02,35.27-85.75,44.1-123.57,2.5-10.7,6.02-27.25,1.31-35.2-4.72,2.76-7.32,7.24-9.65,11.85l-7.4,14.63c-7.03,13.9-11.89,28.31-16.59,43.23l-10.08,31.97-11.85,45.05-12.15,59.47,12.68-25.87h.02ZM664.29,540.76c19.56-11.62,33.18-30.03,38.76-51.65l.5-9.98c.06-1.13-.93-4.29-2.01-4.06-5.11,2.37-8.43,6.56-11.58,10.81-7.68,10.34-13.64,21.36-18.71,33.2-2.84,7.02-5.88,13.51-6.95,21.68h0ZM770.77,624.66c11.15-8.85,21.64-23,22.73-37.96l-14.67,8.03-27.34,18.59-8.69,8.34c-6.52,6.26-10.63,16.78-7.45,18.9,5.32,3.55,25.64-8.14,35.41-15.9h.01ZM180.42,810.95c2.53,8.96,10.62,13.01,19.28,10.77,18.98-4.9,35.13-19.07,48.66-33.13l12.31-14.73c19.96-23.87,42.14-67.64,54.35-97.49,10.26-25.1,18.77-49.87,25.74-76.34-12.18,6.7-23.41,13.55-34.28,21.86l-24.92,19.05c-32.48,26.62-58.21,52.87-79.16,89.64-11.7,20.54-28.09,58.68-21.98,80.36h0Z" fill="#fff"/>
    <g>
      <path d="M266.96,332.2l-29.06,11.68-21.16,62.83-7.94,17.32c-1.92,4.18-9.44,4.48-12.9,2.04-1.95-1.38-2.03-4.5-1.27-6.46,2.99-7.76,5.42-15.14,7.98-23.01l10.73-33.11,3.41-11.88c-3.25-2.46-3.32-5.94-.93-8.65,1.96-2.22,3.55-4.21,6.27-6.04l36.52-104.87,5.21-13.02c1.65-4.14,7.31-5.68,11.44-6.34,5.68-.91,8.68,2.87,9.28,7.92l2.11,17.95,10.03,73.18c3.51-.27,6.74-.33,8.78,1.63,2.61,2.5.95,6.81-2.05,8.2l-4.84,2.24,4.47,34.26c1.4,10.7,4.15,22.59-3.82,24.87-3.01.86-5.4-.51-7.75-2.5-4.28-3.6-5.84-7.54-6.57-12.93l-5.34-39.18-12.59,3.89v-.02ZM277.95,314.06l-4.18-31.93-4.44-34.74c-1.67,1.03-1.04,3.16-1.53,4.59l-10.71,31.41-5.73,17.24-7.76,24.95c11.18-4.72,22.32-8.23,34.34-11.53h0Z" fill="#fff"/>
      <path d="M410.48,295.25c6.81,7.33,16.01,27.52,36.67,21.23,11.83-3.6,18.82-11.15,22.07-7.03,5.63,7.15-14.56,20.08-31.15,21.84-17.85,1.88-31.98-10.22-42.09-25.59l-1.97,25.87c-.28,3.73-.26,7.63-1.69,11.08-1.33,3.23-4.56,4.68-7.65,4.53-2.6-.12-6.66-1.37-7.27-4.85-1.37-7.86-.51-15.82-.14-23.78l.65-14.12c3.4-38.13,8.14-75.48,13.52-113.3.93-6.51,5.17-10.27,11.89-9.92,2.85.15,5.18,1.59,5.5,4.8s.1,6.41-.44,9.67c-1.61,9.7-2.35,19.04-3.59,28.73l-3.03,23.79-3.7,34.57,12.6-15.71,17.74-23.14c2.93-3.82,8.59-5.62,12.85-3.5,3.15,1.57,3.04,5.9,1.4,8.77-6.2,10.89-13.88,20.3-22.07,29.76l-12.18,14.07,2.06,2.22h.02Z" fill="#fff"/>
      <path d="M361.78,338.17c-9.07,17.36-33.41,22.13-46.21,13.08-1.96-1.39-2.98-3.37-3.12-5.36-.16-2.2.75-4.94,3.18-5.99,4.12-1.77,14.49,8.33,26.38-.66,4.39-3.32,6.44-9.8,2.94-14.43-5.37-7.11-15.86-10.34-24.08-18.83-5.6-5.78-6.74-13.75-3.06-20.86,11.26-21.75,50.63-26.16,47.27-10.73-.5,2.3-1.72,3.96-2.95,4.66-2.29,1.31-4.08.49-6.41-.05-7.4-1.73-15.59,1.72-20.13,7.77-3.05,4.07-1.43,9.42,2.29,12.11l11.63,8.43c4.61,3.35,9.17,6.77,12.2,11.79,3.43,5.69,3.25,13,.08,19.06h-.01Z" fill="#fff"/>
    </g>
  </g>
</svg>