<?xml version="1.0" encoding="UTF-8"?>
<svg id="Jules_Vector" xmlns="http://www.w3.org/2000/svg" version="1.1" viewBox="0 0 1419 395">
  <!-- Generator: Adobe Illustrator 30.3.0, SVG Export Plug-In . SVG Version: 2.1.3 Build 182)  -->
  <defs>
    <style>
      .st0, .st1 {
        isolation: isolate;
      }

      .st1 {
        font-family: Avenir-Medium, Avenir;
        font-size: 275px;
        font-weight: 500;
      }

      .st1, .st2 {
        fill: #fff;
      }
    </style>
  </defs>
  <path class="st2" d="M563.46,264.12c12.03,1.23,26.15-2.23,36.32-8.77,6.22-4,9.42-10.18,13.02-6.5l10.16,10.39c1,1.01,1.02,3.69-.2,4.92-21.13,21.08-52.72,27.12-80.77,17.93-21.67-7.1-37.24-23.99-43.16-46.02-1.58-5.86-2.05-11.93-2.1-18.08-.29-30.53,15.65-56.13,44.4-66.69,15.44-5.68,36.26-5.64,51.59.62,18.45,7.54,31.63,22.42,37.36,41.43,2.98,9.88,3.55,19.41,3.12,29.9-.04,1.05-1.78,3.04-2.93,3.04l-26.61-.03h-9.89l-67.81-.03c-.17.23-1.97,1.2-2.09,1.44,2.98,20.56,19.15,34.35,39.59,36.44h0ZM602.16,206.09c2,0,3.44-.16,4.84-.34-1.16-11.68-6.26-21.88-15.57-28.83-16.05-11.98-41.38-10.04-55.3,4.26-6.7,6.89-10.78,14.9-12.2,24.66,2.43.14,4.6.25,7.09.25h71.15,0Z"/>
  <path class="st2" d="M419.71,151.06v130.95c-.56.63-2.37,1.6-3.15,1.6l-19.33-.03c-.87,0-2.73-1.62-2.71-2.54l.16-9.87c-.29-.38-1.16-1.55-.99-1.31-6.85,5.91-12.63,10.34-20.68,13.14-18.27,6.36-41.73,3.72-56.44-9.77-9.36-8.57-14.57-21.44-14.57-34.26l.03-87.38c0-1.04,1.49-2.69,2.4-2.69l20.22.02c.95,0,2.33,1.74,2.33,2.73l-.04,82.92c0,12.24,6.91,22.97,17.91,27.79,14.68,6.44,35.42,1.99,44.41-11.34,3.03-4.48,5.31-9.99,5.3-15.43l-.02-8.85-.04-21-.11-54.25c0-1.17,1.71-2.59,2.76-2.59h19.43c.88,0,3.15,1.31,3.15,2.16h-.02Z"/>
  <path class="st2" d="M725.94,283.34c-24.29,6.17-51.38,2.08-72.5-11.14l-5.43-3.39c-.87-.54-1.48-2.85-.93-3.83l8.55-15.3c2.02-3.62,7.22,3.11,15.69,7.52,15.45,8.06,39,13.63,54.36,3.15,3.26-2.22,5.26-5.9,6.03-9.67,2.28-11.09-6.42-17.56-15.71-20.06-7.62-2.06-14.85-3.68-22.57-5.31-13.78-2.91-32.69-8.46-38.89-22.45-4.76-10.74-4.6-23.04.92-33.45,4.36-8.23,13.36-15.06,21.99-18.16,11.81-4.26,26.69-4.89,39.12-3.26,11.84,1.55,22.4,5.35,32.77,11.22,1.51.65,2.25,2.57,1.55,3.9l-7.32,13.87c-.4.76-1.58,2.13-2.35,2.37s-2.44-.52-3.31-1.08c-13.74-8.73-33.36-14.06-49.06-8.82-8.52,2.84-15.08,11.86-11.75,19.78,1.8,4.29,5.59,7.57,9.89,9.33,17.67,7.25,27,4.89,46.78,13.47,6.28,2.72,12.19,6.21,16.7,11.42,7.96,9.19,8.95,24.95,4.74,35.92-4.85,12.68-16.5,20.75-29.3,23.99h0l.03-.02Z"/>
  <g>
    <path class="st2" d="M268.52,82.68l-78.99-.02c-.97,0-1.95,1.3-1.95,2.08l.04,14.14c0,.69,1.06,1.94,2.05,1.94l62.09.02c.69,0,1.44.81,1.44,1.5l-.04,27.39.03,62.05c0,11.92-1.52,23.21-5.73,34.18-5.4,14.1-13.07,25.09-24.07,34.94-7.91,7.09-18.96,13.82-28.83,17.46-14.57,5.38-26.2,6.59-41.74,6.63-.87,0-2.19,1.14-2.18,2.03l.07,13.83c0,.76,1.4,1.99,2.22,1.98l13.24-.23c4.03-.07,7.94-.66,11.99-1.22,37.37-5.1,72.04-30.56,85.55-67.73,4.2-11.56,7.31-24.75,7.31-37.32l.02-111.35c0-1.16-1.39-2.33-2.52-2.33h-.01Z"/>
    <path class="st2" d="M153.18,267.65c10.89-.11,20.93-1.06,31.02-4.2,4.94-1.54,9.57-3.73,14.16-6.14,11.57-6.07,22.63-16.65,29.26-28.31,5.44-9.59,9.63-23.66,9.65-34.71l.06-33.5.04-37.61c0-1.02-1.2-2.15-2.14-2.15l-13.63-.05c-.71,0-1.94,1.19-1.94,2.15l-.11,69.23c-.01,9.41-2.77,18.01-7.01,26.1-5.8,11.08-15.92,19.85-26.99,24.77-10.93,4.85-20.77,6.19-32.77,6.3-1.16.02-2.2,1.19-2.2,2.38l-.02,13.22c0,1.13,1.02,2.55,2.61,2.54h0Z"/>
  </g>
  <path class="st2" d="M475.83,279.38c0,2.85-1.65,3.92-3.44,3.92h-18.45c-1.61,0-3.26-1.37-3.26-3.38l.1-191.12c0-.99.16-2.11.6-2.33s1.94-.61,2.62-.62l19.16-.1c.88,0,2.7,1.39,2.7,2.27v191.35h-.03Z"/>
  <g class="st0">
    <g class="st0">
      <g class="st0">
        <text class="st1" transform="translate(814.83 286.15)"><tspan x="0" y="0">Labs</tspan></text>
      </g>
    </g>
  </g>
  <text/>
  <text/>
</svg>